<svg width="12" height="12" viewBox="0 0 12 12" fill="none" xmlns="http://www.w3.org/2000/svg">
<path d="M2.79579 11.6237H9.21971C9.53903 11.6233 9.84527 11.4963 10.071 11.2705C10.2968 11.0447 10.4238 10.7385 10.4242 10.4192V6.00275C10.4238 5.68343 10.2968 5.3772 10.071 5.15146C9.84525 4.92562 9.53901 4.79863 9.21971 4.79826H8.81822V3.19228C8.81822 2.18818 8.28256 1.26036 7.41299 0.758306C6.54342 0.256346 5.47209 0.256346 4.60252 0.758306C3.73295 1.26036 3.19729 2.18818 3.19729 3.19228V4.79826H2.79579C2.47648 4.79862 2.17024 4.92561 1.94451 5.15146C1.71867 5.37722 1.59168 5.68346 1.59131 6.00275V10.4192C1.59167 10.7385 1.71866 11.0447 1.94451 11.2705C2.17026 11.4963 2.4765 11.6233 2.79579 11.6237ZM6.30876 8.81321C6.30876 8.97955 6.17397 9.11434 6.00764 9.11434C5.84131 9.11434 5.70652 8.97955 5.70652 8.81321V7.60873C5.70652 7.4424 5.84131 7.30761 6.00764 7.30761C6.17397 7.30761 6.30876 7.4424 6.30876 7.60873V8.81321ZM4.00028 3.19228C4.00028 2.47505 4.38287 1.81233 5.00402 1.45376C5.62516 1.0952 6.39034 1.0952 7.01149 1.45376C7.63264 1.81233 8.01523 2.47508 8.01523 3.19228V4.79826H4.00028V3.19228Z" fill="#312C21"/>
</svg>
