<svg width="115" height="115" viewBox="0 0 115 115" fill="none" xmlns="http://www.w3.org/2000/svg">
<path d="M31.3973 70.7126V65.0325V70.7126ZM31.3973 70.7126H31.3972L31.3973 71.2626H31.9473L37.5624 71.2619C38.0637 67.8371 40.9996 65.1725 44.5337 65.1725C48.0685 65.1725 51.0045 67.8376 51.5057 71.2626H69.037H69.587V70.7126V39.0639V38.5139H69.037L31.3973 70.7126ZM93.1426 45.6824L93.144 45.6821L93.1429 45.6825L98.5248 59.0205C98.5249 59.0209 98.5251 59.0213 98.5253 59.0217C98.5675 59.1275 98.5893 59.2412 98.5893 59.355L98.5893 72.7036C98.5893 72.7041 98.5893 72.7046 98.5893 72.7051C98.5865 73.1914 98.1926 73.5851 97.7061 73.5875C97.7059 73.5875 97.7056 73.5875 97.7053 73.5875L91.1657 73.5875H90.7421L90.6339 73.9971C89.8919 76.8061 87.3604 78.8941 84.3684 78.8941C81.3758 78.8941 78.8387 76.8048 78.0943 73.9966L77.9859 73.5875H77.5627H51.3394H50.9162L50.8077 73.9966C50.0633 76.8056 47.5263 78.8941 44.5337 78.8941C41.5411 78.8941 39.004 76.8048 38.2596 73.9966L38.1512 73.5875H37.728L29.9562 73.5875C29.9559 73.5875 29.9557 73.5875 29.9554 73.5875C29.4688 73.5851 29.0748 73.1912 29.0723 72.7046L29.0723 65.0325L29.0723 65.0297C29.0711 64.795 29.1636 64.5689 29.3297 64.4016C29.4955 64.2346 29.7211 64.14 29.9558 64.1392C30.1929 64.1384 30.4205 64.2322 30.5874 64.3991C30.7543 64.5661 30.8481 64.7937 30.8473 65.0307V65.0325V71.2626V71.8126L31.3973 71.8126L37.5625 71.8119L38.0378 71.8119L38.1066 71.3416C38.5699 68.1763 41.2831 65.7225 44.5337 65.7225C47.785 65.7225 50.4983 68.1767 50.9615 71.3422L51.0303 71.8126H51.5057H69.587H70.137V71.2626V38.5139V37.9639H69.587H29.9559C29.4698 37.9614 29.0762 37.5681 29.073 37.0822C29.0761 36.5954 29.47 36.2023 29.9559 36.1998L71.0277 36.2004C71.0279 36.2004 71.0281 36.2004 71.0283 36.2004C71.5161 36.202 71.9116 36.5966 71.914 37.0842C71.914 37.0845 71.914 37.0848 71.914 37.085L71.914 44.5757V45.1257H72.464H92.3258C92.6861 45.1288 93.0086 45.3487 93.1426 45.6824ZM22.8122 46.1853L22.8122 46.1843C22.811 45.9498 22.9034 45.7237 23.0689 45.5562C23.2354 45.3891 23.4608 45.2948 23.695 45.2938C23.6953 45.2938 23.6955 45.2938 23.6958 45.2938L45.3829 45.2938L45.3847 45.2938C45.6215 45.293 45.8485 45.3866 46.0156 45.5537L46.0161 45.5541C46.1833 45.7209 46.2767 45.948 46.2755 46.1843L46.2755 46.1852C46.2747 46.4205 46.1805 46.6457 46.0137 46.8109L46.0132 46.8114C45.8461 46.9772 45.6205 47.0696 45.3848 47.0688H45.3829H23.6951C23.2079 47.0663 22.8138 46.6715 22.8122 46.1853ZM72.4654 46.9008H71.9155L71.9154 47.4507L71.9143 57.9226L71.9142 58.4727L72.4643 58.4727L95.5743 58.4733L96.3891 58.4733L96.0844 57.7176L91.8618 47.2451L91.723 46.9008H91.3517H72.4654ZM17.2094 54.4605H17.2112L45.3829 54.4605L45.3848 54.4605C45.6209 54.4597 45.847 54.5525 46.014 54.7187L46.0145 54.7192C46.1808 54.8843 46.2748 55.1092 46.2755 55.3449C46.2744 55.5797 46.1802 55.8043 46.0137 55.9692L46.0132 55.9697C45.8457 56.136 45.6202 56.2283 45.3857 56.2271H45.3829L17.2112 56.2271L17.2084 56.2271C16.9737 56.2283 16.7476 56.1358 16.5803 55.9697C16.4142 55.8048 16.3196 55.5799 16.3179 55.3445C16.3188 55.1096 16.413 54.8846 16.5797 54.7192L16.5801 54.7187C16.7472 54.5524 16.9733 54.4597 17.2094 54.4605ZM72.4654 60.2477H71.9154L71.9154 60.7976L71.9153 71.2618L71.9153 71.8118H72.4653H77.4009H77.8763L77.9451 71.3415C78.4084 68.1759 81.1192 65.7224 84.3696 65.7224C87.6198 65.7224 90.3241 68.1751 90.7856 71.3412L90.8542 71.8118H91.3299H96.2655H96.8155V71.2618V60.7977V60.2477H96.2655H72.4654ZM45.3829 56.7771C45.7641 56.7791 46.1299 56.6289 46.4007 56.36L45.3829 56.7771ZM44.5119 67.4967C44.4887 67.4965 44.4568 67.4963 44.4283 67.4967V67.4966L44.4186 67.4968L44.4144 67.4969C41.8526 67.5618 39.8155 69.6656 39.8155 72.3003C39.8155 74.9746 41.9145 77.1179 44.535 77.1179C47.1555 77.1179 49.2544 74.9744 49.2544 72.3003C49.2544 69.6235 47.1531 67.4968 44.535 67.4968C44.5292 67.4968 44.5212 67.4967 44.5119 67.4967ZM84.2627 67.4967V67.4966L84.253 67.4968L84.2488 67.4969C81.687 67.5618 79.6499 69.6656 79.6499 72.3003C79.6499 74.9746 81.7488 77.1179 84.3693 77.1179C86.9895 77.1179 89.0913 74.9749 89.0913 72.3003C89.0913 69.6231 86.987 67.4968 84.3693 67.4968C84.3491 67.4968 84.3025 67.4962 84.2627 67.4967Z" fill="black" stroke="white" stroke-width="1.1"/>
</svg>
