<svg width="62" height="53" viewBox="0 0 62 53" fill="none" xmlns="http://www.w3.org/2000/svg">
<path d="M33.264 20.6216V20.0406V17.0804C33.264 16.584 32.8615 16.1814 32.3651 16.1814H19.0434C18.5468 16.1814 18.1444 16.5837 18.1439 17.0804L33.264 20.6216ZM33.264 20.6216H33.845M33.264 20.6216H33.845M33.845 20.6216H38.2853C38.7813 20.6219 39.1835 21.0236 39.1846 21.519C39.1771 22.4552 39.5483 23.3548 40.2139 24.0131M33.845 20.6216L40.2139 24.0131M19.6243 32.7819V33.3628C19.6243 34.7417 20.36 36.0159 21.5541 36.7053C22.7484 37.3947 24.2193 37.3947 25.4134 36.7053L25.4134 36.7053C26.6076 36.0159 27.3433 34.7417 27.3433 33.3628V32.7819H27.9242H33.8449H34.4258V33.3628C34.4258 34.7417 35.1615 36.0159 36.3556 36.7053C37.5499 37.3947 39.0212 37.3947 40.2154 36.7053L40.2154 36.7053C41.4095 36.016 42.1447 34.7418 42.1447 33.3628V32.7819H42.7257C43.2227 32.7819 43.6251 32.3792 43.6251 31.8829V25.9623C43.6251 25.4651 43.2225 25.0624 42.7261 25.0622L19.6243 32.7819ZM19.6243 32.7819H19.0434M19.6243 32.7819H19.0434M19.0434 32.7819C18.5468 32.7819 18.1444 32.3796 18.1439 31.8829L19.0434 32.7819ZM40.2139 24.0131C40.8772 24.6849 41.7822 25.0627 42.726 25.0622C42.7259 25.0622 42.7258 25.0622 42.7258 25.0622L40.2139 24.0131ZM37.5521 22.8588L37.4414 22.4199L36.9888 22.42L33.8447 22.4203L33.2638 22.4204V23.0013V30.4018V30.9828H33.8447H41.2458H41.8267V30.4018V27.2551V26.8048L41.3906 26.6925C40.4679 26.4549 39.6258 25.9723 38.9539 25.2963L38.9539 25.2962L38.9487 25.2911C38.2687 24.6239 37.7851 23.782 37.5521 22.8588ZM22.0032 32.7813H21.4216L21.4222 33.3629C21.4235 34.5006 22.3455 35.4218 23.4829 35.4231L23.4842 35.4231C24.6211 35.4217 25.5431 34.5006 25.5444 33.3629L25.545 32.7813H24.9634H22.0032ZM19.9419 30.402V30.9829H20.5228H26.0296H30.8841H31.465V30.402V18.5607V17.9798H30.8841H20.5228H19.9419V18.5607V30.402ZM36.8048 32.7813H36.2228L36.2238 33.3632C36.2258 34.5002 37.1466 35.4222 38.2845 35.4235L38.2861 35.4235C39.4227 35.4216 40.3447 34.5007 40.346 33.3629L40.3466 32.7813H39.765H36.8048ZM18.1439 31.8828V17.0805V31.8828Z" fill="black" stroke="white" stroke-width="1.16186"/>
<path d="M10.0534 37.023L10.0534 37.0231L42.0009 47.7341L42.2393 48.2639C42.2395 48.2638 42.2396 48.2638 42.2398 48.2637C42.6921 48.0605 43.223 48.2616 43.4274 48.7132C43.6317 49.1651 43.4319 49.697 42.9805 49.9025C39.5658 51.4432 35.8622 52.2382 32.1157 52.2346L32.1129 52.2346C26.5951 52.2553 21.2088 50.5523 16.7053 47.3639C12.2023 44.1747 8.80691 39.6591 6.99418 34.4475C5.1819 29.236 5.04242 23.5883 6.59479 18.2932L6.96765 17.0214L5.77974 17.6091L2.33797 19.3117C2.3376 19.3119 2.33724 19.3121 2.33687 19.3123C1.89224 19.5288 1.3563 19.3456 1.13726 18.9025L1.13713 18.9022C0.917913 18.4593 1.09756 17.9221 1.53968 17.6997L8.2358 14.3867C8.25885 14.3808 8.28725 14.3723 8.31877 14.3597C8.37536 14.3385 8.43253 14.3235 8.49075 14.3145L8.52156 14.3097L8.55169 14.3017C8.59156 14.291 8.63333 14.2831 8.67667 14.2781C8.71756 14.2815 8.75785 14.2877 8.79713 14.2966L8.82704 14.3035L8.8575 14.3071C8.92017 14.3146 8.98087 14.3284 9.03717 14.3478C9.04555 14.3508 9.0537 14.3536 9.06158 14.3561C9.06988 14.3625 9.07791 14.3689 9.08566 14.3753L9.13417 14.4156L9.19019 14.4445C9.27454 14.4881 9.34335 14.5542 9.38972 14.6356L9.42068 14.6899L9.46251 14.7365C9.4819 14.758 9.50006 14.7805 9.51687 14.8038L12.8403 21.5215C12.8403 21.5215 12.8404 21.5216 12.8404 21.5216C13.0604 21.9668 12.8781 22.5061 12.4325 22.7267C11.9876 22.9468 11.4476 22.7643 11.2275 22.319L11.2274 22.3188L9.41342 18.6519L8.75517 17.3212L8.33549 18.7452C6.54132 24.833 7.15639 31.377 10.0534 37.023Z" fill="black" stroke="white" stroke-width="1.16186"/>
<path d="M59.4366 34.0903L59.4363 34.0904L55.9925 35.7943L54.8057 36.3815L55.1772 35.1106C57.0856 28.5832 56.4135 21.5713 53.2998 15.5257L53.2998 15.5256C50.1865 9.47923 44.8691 4.85973 38.4471 2.62279L38.447 2.62277C32.0249 0.384824 24.9892 0.699952 18.7916 3.50204C18.3403 3.70696 18.1401 4.23884 18.3445 4.69099L18.3445 4.691C18.5488 5.14282 19.0804 5.34393 19.5328 5.14033C25.3153 2.52547 31.8816 2.23461 37.8721 4.32682C43.8637 6.41908 48.8211 10.7353 51.7182 16.3814C54.6156 22.0279 55.2307 28.5714 53.4365 34.6592L53.0168 36.0833L52.3586 34.7525L50.6057 31.2085L50.5449 31.0867C50.324 30.6433 49.7854 30.462 49.3414 30.6818L49.3412 30.6819C48.8975 30.9012 48.7143 31.4385 48.9321 31.8839C48.9322 31.8842 48.9324 31.8844 48.9325 31.8847L52.2716 38.634C52.2719 38.6346 52.2721 38.6351 52.2724 38.6357C52.3592 38.8067 52.4991 38.9441 52.6709 39.0274L52.6808 39.0322L52.7646 39.0675C52.8657 39.11 52.9739 39.1336 53.0841 39.137L53.1064 39.1377C53.2155 39.1299 53.3219 39.1023 53.4205 39.0562L53.4291 39.0522L53.4377 39.0485C53.4772 39.0316 53.5134 39.0208 53.5428 39.0137L59.4366 34.0903ZM59.4366 34.0903C59.6502 33.9844 59.8974 33.9679 60.1241 34.0443L59.4366 34.0903ZM52.8249 39.1311L52.8219 39.1286C52.8249 39.1311 52.8269 39.1328 52.8249 39.1311ZM38.6381 2.07426L38.6381 2.07433L38.6381 2.07426Z" fill="black" stroke="white" stroke-width="1.16186"/>
</svg>
