<svg width="44" height="38" viewBox="0 0 44 38" fill="none" xmlns="http://www.w3.org/2000/svg">
<path d="M0.074707 17.3408C0.074707 16.7885 0.522422 16.3408 1.07471 16.3408H19.8604C20.4127 16.3408 20.8604 16.7885 20.8604 17.3408V29.3523C20.8604 29.9046 20.4127 30.3523 19.8604 30.3523H1.07471C0.522423 30.3523 0.074707 29.9046 0.074707 29.3523V17.3408Z" fill="white"/>
<path d="M22.455 17.3408C22.455 16.7885 22.9027 16.3408 23.455 16.3408H42.2406C42.7929 16.3408 43.2406 16.7885 43.2406 17.3408V29.3523C43.2406 29.9046 42.7929 30.3523 42.2406 30.3523H23.455C22.9027 30.3523 22.455 29.9046 22.455 29.3523V17.3408Z" fill="white"/>
<path d="M0.074707 1.37988C0.074707 0.827598 0.522422 0.379883 1.07471 0.379883H19.8604C20.4127 0.379883 20.8604 0.827598 20.8604 1.37988V13.3825C20.8604 13.9348 20.4127 14.3825 19.8604 14.3825H1.07471C0.522423 14.3825 0.074707 13.9348 0.074707 13.3825V1.37988Z" fill="white"/>
<path d="M22.455 1.37988C22.455 0.827598 22.9027 0.379883 23.455 0.379883H42.2406C42.7929 0.379883 43.2406 0.827598 43.2406 1.37988V13.3825C43.2406 13.9348 42.7929 14.3825 42.2406 14.3825H23.455C22.9027 14.3825 22.455 13.9348 22.455 13.3825V1.37988Z" fill="white"/>
<path d="M0 32.7229C0 32.1706 0.447715 31.7229 1 31.7229H42.4855C43.0378 31.7229 43.4855 32.1706 43.4855 32.7229V33.6909H0V32.7229Z" fill="#FFC501"/>
<path d="M0.0367432 33.637H6.64799V36.5017C6.64799 36.7778 6.42413 37.0017 6.14799 37.0017H0.536743C0.260601 37.0017 0.0367432 36.7778 0.0367432 36.5017V33.637Z" fill="#FFC501"/>
<path d="M36.8564 33.637H43.4862V36.5017C43.4862 36.7778 43.2623 37.0017 42.9862 37.0017H37.3564C37.0803 37.0017 36.8564 36.7778 36.8564 36.5017V33.637Z" fill="#FFC501"/>
<path d="M19.8052 33.637H23.8229V36.5017C23.8229 36.7778 23.599 37.0017 23.3229 37.0017H20.3052C20.029 37.0017 19.8052 36.7778 19.8052 36.5017V33.637Z" fill="#FFC501"/>
</svg>
